<?xml version="1.0" standalone="no"?>
<!DOCTYPE svg PUBLIC "-//W3C//DTD SVG 20010904//EN"
 "http://www.w3.org/TR/2001/REC-SVG-20010904/DTD/svg10.dtd">
<svg version="1.0" xmlns="http://www.w3.org/2000/svg"
 width="512.000000pt" height="512.000000pt" viewBox="0 0 512.000000 512.000000"
 preserveAspectRatio="xMidYMid meet">

<g transform="translate(0.000000,512.000000) scale(0.100000,-0.100000)"
fill="#000000" stroke="none">
<path d="M2403 5106 c-151 -29 -256 -73 -380 -158 -135 -93 -172 -157 -120
-206 38 -36 67 -28 148 39 83 68 222 140 319 166 48 13 101 18 200 17 123 -1
143 -3 228 -31 108 -36 203 -90 286 -163 52 -45 63 -51 90 -46 38 7 66 39 66
76 0 30 -67 100 -152 158 -73 50 -205 110 -293 133 -103 27 -292 34 -392 15z"/>
<path d="M2410 4754 c-89 -23 -199 -82 -257 -138 -59 -58 -65 -82 -30 -120 33
-37 59 -40 98 -11 162 118 220 139 359 133 118 -6 188 -31 272 -99 42 -33 71
-49 90 -49 36 0 78 40 78 74 0 59 -177 179 -311 211 -80 18 -227 18 -299 -1z"/>
<path d="M1550 4231 c-176 -38 -340 -123 -462 -239 -33 -31 -98 -100 -145
-153 -80 -92 -86 -97 -132 -103 -54 -7 -103 -36 -135 -79 -18 -25 -21 -46 -25
-152 -3 -112 -1 -129 19 -169 23 -48 64 -79 116 -90 28 -6 33 -12 38 -49 3
-23 80 -708 172 -1522 155 -1387 167 -1483 191 -1534 27 -55 82 -104 146 -128
46 -17 2408 -17 2454 0 63 24 120 73 146 128 21 44 29 86 43 222 l18 167 -22
22 c-26 26 -85 30 -108 6 -15 -15 -24 -65 -49 -282 -6 -50 -13 -66 -40 -93
l-33 -33 -236 0 -235 0 -3 283 -3 284 -27 39 c-15 21 -44 50 -65 64 l-37 25
-576 0 -576 0 -37 -25 c-21 -14 -50 -43 -65 -64 l-27 -39 -3 -284 -3 -283
-233 0 c-221 0 -235 1 -260 21 -14 11 -31 29 -36 40 -6 10 -84 677 -175 1481
-90 805 -167 1482 -170 1506 l-6 42 1591 0 1591 0 -6 -42 c-14 -101 -255
-2264 -255 -2290 0 -66 92 -93 130 -38 15 20 42 240 145 1160 69 624 129 1151
132 1172 5 31 10 37 37 42 51 10 92 41 115 88 17 37 21 63 21 149 0 57 -4 120
-10 138 -19 68 -94 121 -171 121 -20 0 -45 21 -111 98 -169 191 -286 282 -443
343 -180 70 -157 69 -1180 68 -848 0 -927 -2 -1005 -18z m2048 -159 c154 -47
280 -128 391 -249 l71 -78 -750 -3 c-413 -1 -1087 -1 -1500 0 l-750 3 71 78
c134 146 297 237 489 270 14 3 448 4 965 3 l940 -1 73 -23z m-425 -492 l1148
0 -3 -92 -3 -93 -1755 0 -1755 0 -3 84 c-2 46 0 91 3 99 5 13 79 14 613 9 334
-4 1124 -7 1755 -7z m-69 -2902 c9 -12 16 -39 16 -60 l0 -38 -560 0 -560 0 0
42 c0 83 -36 78 561 78 l528 0 15 -22z m16 -388 l0 -140 -560 0 -560 0 0 140
0 140 560 0 560 0 0 -140z"/>
<path d="M2360 2991 c-107 -23 -235 -73 -289 -111 -35 -25 -41 -36 -41 -65 0
-41 29 -75 64 -75 13 0 61 18 107 39 117 55 186 71 320 78 242 12 446 -66 622
-236 255 -246 324 -628 172 -950 -254 -535 -963 -647 -1365 -215 -255 273
-297 675 -106 1001 42 72 45 95 11 128 -29 30 -64 32 -98 5 -38 -30 -123 -211
-153 -325 -35 -136 -38 -327 -6 -458 47 -191 142 -357 279 -488 98 -93 149
-129 267 -185 564 -267 1227 57 1378 673 31 130 29 323 -5 454 -65 247 -207
447 -418 589 -208 139 -492 193 -739 141z"/>
<path d="M2255 2505 c-101 -36 -159 -161 -124 -266 46 -137 203 -184 303 -91
102 96 80 290 -39 346 -52 25 -94 28 -140 11z m79 -151 c19 -18 21 -75 4 -92
-44 -44 -90 32 -52 86 18 26 27 27 48 6z"/>
<path d="M2678 2483 c-25 -29 -358 -832 -358 -864 0 -59 73 -91 118 -51 26 23
362 828 362 868 0 17 -8 38 -18 47 -25 22 -85 22 -104 0z"/>
<path d="M2725 1931 c-176 -109 -115 -393 84 -393 131 0 221 135 180 273 -15
50 -64 108 -105 125 -48 20 -123 18 -159 -5z m117 -156 c23 -51 -20 -106 -57
-75 -18 15 -20 71 -3 88 20 20 48 14 60 -13z"/>
</g>
</svg>
